<?xml version="1.0" encoding="UTF-8"?>
<svg id="LinkedIn_alt" height="25" width="35" data-name="LinkedIn alt" xmlns="http://www.w3.org/2000/svg" viewBox="0 0 512 512">
  <defs>
    <style>
      .cls-1 {
        fill: #fff;
      }
    </style>
  </defs>
  <path class="cls-1" d="m51.33,185.85h90.01v270.87H51.33V185.85ZM96.93,55.28c-30.81,0-50.93,20.22-50.93,46.77s19.54,46.81,49.76,46.81h.57c31.4,0,50.95-20.81,50.95-46.81-.59-26.55-19.55-46.77-50.34-46.77Zm265.4,124.21c-47.78,0-69.18,26.28-81.12,44.71v-38.35h-90.04c1.19,25.41,0,270.87,0,270.87h90.04v-151.27c0-8.1.59-16.17,2.96-21.98,6.52-16.17,21.33-32.92,46.18-32.92,32.6,0,45.62,24.85,45.62,61.25v144.93h90.02v-155.32c0-83.2-44.4-121.91-103.66-121.91Z"/>
</svg>