<?xml version="1.0" encoding="UTF-8"?>
<svg id="Layer_2" data-name="Layer 2" xmlns="http://www.w3.org/2000/svg" viewBox="0 0 77.69 77.69">
  <defs>
    <style>
      .cls-1 {
        fill: #fff;
      }
    </style>
  </defs>
  <g id="Layer_1-2" data-name="Layer 1">
    <g>
      <path class="cls-1" d="m71.06,60.56c4.19-6.2,6.63-13.67,6.63-21.71,0-5.74-1.24-11.19-3.48-16.09l-21.82,37.8h18.67Z"/>
      <path class="cls-1" d="m6.63,17.13C2.44,23.33,0,30.8,0,38.84c0,5.74,1.24,11.19,3.48,16.09L25.3,17.13H6.63Z"/>
      <path class="cls-1" d="m36.47,77.62c.78.05,1.57.07,2.37.07,13.03,0,24.56-6.42,31.61-16.26H27l9.48,16.19h0Z"/>
      <path class="cls-1" d="m73.76,21.8C67.97,9.96,56.33,1.5,42.6.18l21.82,37.79,9.34-16.17h0Z"/>
      <path class="cls-1" d="m3.93,55.89c5.84,11.94,17.62,20.44,31.49,21.65L13.27,39.71,3.93,55.89h0Z"/>
      <path class="cls-1" d="m41.55.09c-.89-.06-1.79-.09-2.7-.09C25.82,0,14.28,6.42,7.24,16.26h43.64L41.55.09h0Z"/>
    </g>
  </g>
</svg>