<?xml version="1.0" encoding="UTF-8"?>
<svg id="Layer_15" data-name="Layer 15" xmlns="http://www.w3.org/2000/svg" viewBox="0 0 800 440">
  <defs>
    <style>
      .cls-1 {
        fill: #fff;
      }

      .cls-2 {
        fill: #b2b2b2;
      }
    </style>
  </defs>
  <path class="cls-1" d="m332.32,281.77c-5.08-11.89-7.62-24.66-7.62-38.3v-25.62c0,12.18-2.33,23.72-6.96,34.6-4.64,10.88-11.03,20.39-19.15,28.51-8.13,8.13-17.63,14.51-28.51,19.15-10.88,4.64-22.41,6.96-34.6,6.96s-23.72-2.32-34.6-6.96c-10.88-4.64-20.39-11.02-28.51-19.15-8.13-8.12-14.51-17.63-19.15-28.51-4.64-10.88-6.96-22.41-6.96-34.6s2.32-23.72,6.96-34.6c4.64-10.88,11.02-20.38,19.15-28.51,8.12-8.12,17.63-14.5,28.51-19.15,10.88-4.64,22.41-6.96,34.6-6.96s23.72,2.33,34.6,6.96c10.88,4.64,20.38,11.03,28.51,19.15,8.12,8.13,14.5,17.63,19.15,28.51,4.64,10.88,6.96,22.41,6.96,34.6v-79.79c-1.48-1.65-2.99-3.28-4.57-4.86-10.88-10.88-23.58-19.43-38.08-25.68-14.51-6.24-30.03-9.36-46.57-9.36s-32.06,3.12-46.57,9.36c-14.51,6.24-27.2,14.8-38.08,25.68-10.88,10.88-19.44,23.58-25.68,38.08-6.24,14.51-9.36,30.03-9.36,46.57s3.11,32.06,9.36,46.57c6.24,14.51,14.8,27.2,25.68,38.08,10.88,10.88,23.57,19.44,38.08,25.68,14.5,6.24,30.03,9.36,46.57,9.36s32.06-3.12,46.57-9.36c14.5-6.24,27.13-14.72,37.86-25.46l4.79-4.79v29.16h30.46v-12.07c-.73-.7-1.46-1.41-2.18-2.14-8.7-8.85-15.6-19.22-20.67-31.12Z"/>
  <path class="cls-1" d="m652.86,113.78v129.69c0,9.29-1.74,17.99-5.22,26.11-3.48,8.13-8.2,15.23-14.14,21.33-5.95,6.09-12.99,10.88-21.11,14.36-8.13,3.48-16.83,5.22-26.11,5.22s-17.48-1.67-25.46-5c-7.98-3.33-15.01-7.98-21.11-13.93-6.09-5.94-10.88-12.98-14.36-21.11-3.48-8.12-5.22-17.12-5.22-26.98V113.78h-31.34v129.69c0,9.29-1.82,17.99-5.44,26.11-3.63,8.13-8.49,15.23-14.58,21.33-6.09,6.09-13.21,10.88-21.33,14.36-8.13,3.48-16.69,5.22-25.68,5.22s-17.99-1.74-26.11-5.22c-8.13-3.48-15.16-8.27-21.11-14.36-5.95-6.09-10.66-13.2-14.14-21.33-3.48-8.12-5.22-16.82-5.22-26.11V113.78h-30.46v24.27c8.73,9.76,15.77,20.83,21.11,33.24,6.24,14.51,9.36,30.03,9.36,46.57v97.17c-.73-.7-1.46-1.41-2.17-2.13,8.7,8.85,18.93,15.88,30.68,21.11,11.75,5.22,24.44,7.83,38.08,7.83,17.41,0,33.22-4.07,47.44-12.19,14.21-8.12,25.82-19.15,34.82-33.08,8.7,13.93,20.24,24.96,34.6,33.08,14.36,8.12,30.25,12.19,47.66,12.19,13.34,0,25.96-2.61,37.86-7.83,11.89-5.22,22.34-12.25,31.34-21.11,8.99-8.85,16.03-19.22,21.11-31.12,5.07-11.89,7.62-24.66,7.62-38.3V113.78h-31.34Z"/>
  <path class="cls-2" d="m355.17,243.47v-25.62c0-16.54-3.12-32.06-9.36-46.57-5.34-12.41-12.38-23.49-21.11-33.24v105.43c0,13.64,2.54,26.41,7.62,38.3,5.07,11.9,11.97,22.27,20.67,31.12.71.73,1.44,1.44,2.18,2.14v-71.55Z"/>
</svg>